<svg width="58" height="48" viewBox="0 0 58 48" fill="none" xmlns="http://www.w3.org/2000/svg">
<path fill-rule="evenodd" clip-rule="evenodd" d="M0.5 45.375C0.5 44.7451 0.750223 44.141 1.19562 43.6956C1.64102 43.2502 2.24511 43 2.875 43H55.125C55.7549 43 56.359 43.2502 56.8044 43.6956C57.2498 44.141 57.5 44.7451 57.5 45.375C57.5 46.0049 57.2498 46.609 56.8044 47.0544C56.359 47.4998 55.7549 47.75 55.125 47.75H2.875C2.24511 47.75 1.64102 47.4998 1.19562 47.0544C0.750223 46.609 0.5 46.0049 0.5 45.375ZM0.5 31.125C0.5 30.4951 0.750223 29.891 1.19562 29.4456C1.64102 29.0002 2.24511 28.75 2.875 28.75H55.125C55.7549 28.75 56.359 29.0002 56.8044 29.4456C57.2498 29.891 57.5 30.4951 57.5 31.125C57.5 31.7549 57.2498 32.359 56.8044 32.8044C56.359 33.2498 55.7549 33.5 55.125 33.5H2.875C2.24511 33.5 1.64102 33.2498 1.19562 32.8044C0.750223 32.359 0.5 31.7549 0.5 31.125ZM0.5 16.875C0.5 16.2451 0.750223 15.641 1.19562 15.1956C1.64102 14.7502 2.24511 14.5 2.875 14.5H55.125C55.7549 14.5 56.359 14.7502 56.8044 15.1956C57.2498 15.641 57.5 16.2451 57.5 16.875C57.5 17.5049 57.2498 18.109 56.8044 18.5544C56.359 18.9998 55.7549 19.25 55.125 19.25H2.875C2.24511 19.25 1.64102 18.9998 1.19562 18.5544C0.750223 18.109 0.5 17.5049 0.5 16.875ZM0.5 2.625C0.5 1.99511 0.750223 1.39102 1.19562 0.945622C1.64102 0.500223 2.24511 0.25 2.875 0.25H55.125C55.7549 0.25 56.359 0.500223 56.8044 0.945622C57.2498 1.39102 57.5 1.99511 57.5 2.625C57.5 3.25489 57.2498 3.85898 56.8044 4.30438C56.359 4.74978 55.7549 5 55.125 5H2.875C2.24511 5 1.64102 4.74978 1.19562 4.30438C0.750223 3.85898 0.5 3.25489 0.5 2.625Z" fill="#2A2927"/>
</svg>
