<svg width="70" height="54" viewBox="0 0 70 54" fill="none" xmlns="http://www.w3.org/2000/svg">
<path d="M0.21875 7.36792C0.659829 5.41682 1.74412 3.67476 3.29403 2.42703C4.84395 1.1793 6.76762 0.499865 8.75 0.5H61.25C63.2324 0.499865 65.1561 1.1793 66.706 2.42703C68.2559 3.67476 69.3402 5.41682 69.7812 7.36792L35 28.8285L0.21875 7.36792ZM0 12.4117V43.7877L25.3881 28.0732L0 12.4117ZM29.5794 30.6658L0.835625 48.4518C1.5458 49.9635 2.66668 51.2406 4.06779 52.1343C5.46891 53.028 7.09264 53.5016 8.75 53.5H61.25C62.9071 53.5004 64.5302 53.0257 65.9305 52.1312C67.3308 51.2367 68.4508 49.9592 69.16 48.4473L40.4162 30.6614L35 34.0048L29.5794 30.6658ZM44.6119 28.0777L70 43.7877V12.4117L44.6119 28.0777Z" fill="#DA2528"/>
</svg>
