<svg width="64" height="64" viewBox="0 0 64 64" fill="none" xmlns="http://www.w3.org/2000/svg">
<g clip-path="url(#clip0_11_959)">
<path d="M32 44C28.8174 44 25.7652 42.7357 23.5147 40.4853C21.2643 38.2348 20 35.1826 20 32C20 28.8174 21.2643 25.7652 23.5147 23.5147C25.7652 21.2643 28.8174 20 32 20C35.1826 20 38.2348 21.2643 40.4853 23.5147C42.7357 25.7652 44 28.8174 44 32C44 35.1826 42.7357 38.2348 40.4853 40.4853C38.2348 42.7357 35.1826 44 32 44ZM32 48C36.2435 48 40.3131 46.3143 43.3137 43.3137C46.3143 40.3131 48 36.2435 48 32C48 27.7565 46.3143 23.6869 43.3137 20.6863C40.3131 17.6857 36.2435 16 32 16C27.7565 16 23.6869 17.6857 20.6863 20.6863C17.6857 23.6869 16 27.7565 16 32C16 36.2435 17.6857 40.3131 20.6863 43.3137C23.6869 46.3143 27.7565 48 32 48ZM32 0C32.5304 0 33.0391 0.210714 33.4142 0.585786C33.7893 0.960859 34 1.46957 34 2V10C34 10.5304 33.7893 11.0391 33.4142 11.4142C33.0391 11.7893 32.5304 12 32 12C31.4696 12 30.9609 11.7893 30.5858 11.4142C30.2107 11.0391 30 10.5304 30 10V2C30 1.46957 30.2107 0.960859 30.5858 0.585786C30.9609 0.210714 31.4696 0 32 0ZM32 52C32.5304 52 33.0391 52.2107 33.4142 52.5858C33.7893 52.9609 34 53.4696 34 54V62C34 62.5304 33.7893 63.0391 33.4142 63.4142C33.0391 63.7893 32.5304 64 32 64C31.4696 64 30.9609 63.7893 30.5858 63.4142C30.2107 63.0391 30 62.5304 30 62V54C30 53.4696 30.2107 52.9609 30.5858 52.5858C30.9609 52.2107 31.4696 52 32 52ZM64 32C64 32.5304 63.7893 33.0391 63.4142 33.4142C63.0391 33.7893 62.5304 34 62 34H54C53.4696 34 52.9609 33.7893 52.5858 33.4142C52.2107 33.0391 52 32.5304 52 32C52 31.4696 52.2107 30.9609 52.5858 30.5858C52.9609 30.2107 53.4696 30 54 30H62C62.5304 30 63.0391 30.2107 63.4142 30.5858C63.7893 30.9609 64 31.4696 64 32ZM12 32C12 32.5304 11.7893 33.0391 11.4142 33.4142C11.0391 33.7893 10.5304 34 10 34H2C1.46957 34 0.960859 33.7893 0.585786 33.4142C0.210714 33.0391 0 32.5304 0 32C0 31.4696 0.210714 30.9609 0.585786 30.5858C0.960859 30.2107 1.46957 30 2 30H10C10.5304 30 11.0391 30.2107 11.4142 30.5858C11.7893 30.9609 12 31.4696 12 32ZM54.628 9.372C55.0029 9.74706 55.2136 10.2557 55.2136 10.786C55.2136 11.3163 55.0029 11.8249 54.628 12.2L48.972 17.86C48.786 18.0457 48.5653 18.1929 48.3225 18.2933C48.0796 18.3937 47.8194 18.4453 47.5566 18.4451C47.0259 18.4447 46.517 18.2335 46.142 17.858C45.9563 17.672 45.8091 17.4513 45.7087 17.2085C45.6083 16.9656 45.5567 16.7054 45.5569 16.4426C45.5573 15.9119 45.7685 15.403 46.144 15.028L51.8 9.372C52.1751 8.99706 52.6837 8.78643 53.214 8.78643C53.7443 8.78643 54.2529 8.99706 54.628 9.372ZM17.856 46.144C18.2309 46.5191 18.4416 47.0277 18.4416 47.558C18.4416 48.0883 18.2309 48.5969 17.856 48.972L12.2 54.628C11.8228 54.9923 11.3176 55.1939 10.7932 55.1893C10.2688 55.1848 9.76718 54.9745 9.39636 54.6036C9.02555 54.2328 8.81521 53.7312 8.81065 53.2068C8.8061 52.6824 9.00768 52.1772 9.372 51.8L15.028 46.144C15.4031 45.7691 15.9117 45.5584 16.442 45.5584C16.9723 45.5584 17.4809 45.7691 17.856 46.144ZM54.628 54.628C54.2529 55.0029 53.7443 55.2136 53.214 55.2136C52.6837 55.2136 52.1751 55.0029 51.8 54.628L46.144 48.972C45.7797 48.5948 45.5781 48.0896 45.5827 47.5652C45.5872 47.0408 45.7975 46.5392 46.1684 46.1684C46.5392 45.7975 47.0408 45.5872 47.5652 45.5827C48.0896 45.5781 48.5948 45.7797 48.972 46.144L54.628 51.8C55.0029 52.1751 55.2136 52.6837 55.2136 53.214C55.2136 53.7443 55.0029 54.2529 54.628 54.628ZM17.856 17.86C17.4809 18.2349 16.9723 18.4456 16.442 18.4456C15.9117 18.4456 15.4031 18.2349 15.028 17.86L9.372 12.2C9.18098 12.0155 9.02862 11.7948 8.9238 11.5508C8.81898 11.3068 8.76381 11.0444 8.7615 10.7788C8.75919 10.5132 8.80979 10.2499 8.91036 10.0041C9.01092 9.7583 9.15942 9.535 9.34721 9.34721C9.535 9.15942 9.7583 9.01092 10.0041 8.91036C10.2499 8.80979 10.5132 8.75919 10.7788 8.7615C11.0444 8.76381 11.3068 8.81898 11.5508 8.9238C11.7948 9.02862 12.0155 9.18098 12.2 9.372L17.856 15.028C18.0423 15.2138 18.19 15.4345 18.2908 15.6775C18.3917 15.9204 18.4436 16.1809 18.4436 16.444C18.4436 16.7071 18.3917 16.9676 18.2908 17.2105C18.19 17.4535 18.0423 17.6742 17.856 17.86Z" fill="black"/>
</g>
<defs>
<clipPath id="clip0_11_959">
<rect width="64" height="64" fill="white"/>
</clipPath>
</defs>
</svg>
