<svg width="54" height="55" viewBox="0 0 54 55" fill="none" xmlns="http://www.w3.org/2000/svg">
<path d="M27 0.5C34.1608 0.5 41.0284 3.34464 46.0919 8.40812C51.1554 13.4716 54 20.3392 54 27.5C54 34.6608 51.1554 41.5284 46.0919 46.5919C41.0284 51.6554 34.1608 54.5 27 54.5C19.8392 54.5 12.9716 51.6554 7.90812 46.5919C2.84464 41.5284 0 34.6608 0 27.5C0 20.3392 2.84464 13.4716 7.90812 8.40812C12.9716 3.34464 19.8392 0.5 27 0.5ZM15.1875 25.8125C14.7399 25.8125 14.3107 25.9903 13.9943 26.3068C13.6778 26.6232 13.5 27.0524 13.5 27.5C13.5 27.9476 13.6778 28.3768 13.9943 28.6932C14.3107 29.0097 14.7399 29.1875 15.1875 29.1875H34.7389L27.4928 36.4302C27.3359 36.5871 27.2114 36.7734 27.1265 36.9784C27.0416 37.1834 26.9979 37.4031 26.9979 37.625C26.9979 37.8469 27.0416 38.0666 27.1265 38.2716C27.2114 38.4766 27.3359 38.6629 27.4928 38.8198C27.6496 38.9766 27.8359 39.1011 28.0409 39.186C28.2459 39.2709 28.4656 39.3146 28.6875 39.3146C28.9094 39.3146 29.1291 39.2709 29.3341 39.186C29.5391 39.1011 29.7254 38.9766 29.8822 38.8198L40.0073 28.6947C40.1644 28.538 40.2891 28.3518 40.3742 28.1468C40.4592 27.9417 40.503 27.722 40.503 27.5C40.503 27.278 40.4592 27.0583 40.3742 26.8532C40.2891 26.6482 40.1644 26.462 40.0073 26.3053L29.8822 16.1803C29.7254 16.0234 29.5391 15.8989 29.3341 15.814C29.1291 15.7291 28.9094 15.6854 28.6875 15.6854C28.4656 15.6854 28.2459 15.7291 28.0409 15.814C27.8359 15.8989 27.6496 16.0234 27.4928 16.1803C27.3359 16.3371 27.2114 16.5234 27.1265 16.7284C27.0416 16.9334 26.9979 17.1531 26.9979 17.375C26.9979 17.5969 27.0416 17.8166 27.1265 18.0216C27.2114 18.2266 27.3359 18.4129 27.4928 18.5697L34.7389 25.8125H15.1875Z" fill="#DA2528"/>
</svg>
