<svg width="50" height="51" viewBox="0 0 50 51" fill="none" xmlns="http://www.w3.org/2000/svg">
<path d="M42.6952 7.7689C40.393 5.45483 37.651 3.6203 34.629 2.37233C31.6071 1.12436 28.3658 0.487935 25.0942 0.500173C11.3856 0.500173 0.213461 11.6189 0.200904 25.2688C0.200904 29.6407 1.34982 33.8938 3.51896 37.6594L0 50.5L13.1969 47.0563C16.8461 49.0382 20.9372 50.0752 25.0942 50.0719H25.1067C38.8184 50.0719 49.9874 38.9532 50 25.2907C50.0028 22.0347 49.3585 18.8102 48.1043 15.8031C46.8501 12.7959 45.0139 10.0654 42.6952 7.7689ZM25.0942 45.8781C21.3874 45.8752 17.7493 44.8824 14.5593 43.0032L13.8059 42.5532L5.97689 44.5969L8.06755 36.9938L7.57785 36.2094C5.50542 32.9292 4.40936 29.1314 4.41675 25.2563C4.41675 13.9251 13.6991 4.68141 25.1067 4.68141C27.8244 4.67656 30.5161 5.20726 33.0268 6.24294C35.5375 7.27861 37.8174 8.79877 39.7351 10.7158C41.659 12.6256 43.1843 14.8956 44.223 17.3949C45.2618 19.8942 45.7934 22.5734 45.7873 25.2782C45.7747 36.65 36.4923 45.8781 25.0942 45.8781ZM36.4421 30.4594C35.8237 30.1501 32.7693 28.6532 32.1949 28.4407C31.6235 28.2376 31.206 28.1313 30.798 28.7501C30.3805 29.3657 29.1876 30.7688 28.8297 31.1719C28.4719 31.5876 28.1014 31.6344 27.4799 31.3282C26.8615 31.0157 24.8556 30.3657 22.4824 28.2501C20.6303 26.6095 19.3904 24.5782 19.02 23.9626C18.6621 23.3438 18.9854 23.0126 19.2962 22.7032C19.5693 22.4282 19.9146 21.9782 20.2254 21.622C20.5393 21.2657 20.6429 21.0032 20.8469 20.5907C21.051 20.172 20.9537 19.8157 20.7998 19.5064C20.6429 19.197 19.4029 16.1439 18.8787 14.9126C18.3764 13.697 17.8648 13.8658 17.4818 13.8501C17.1239 13.8283 16.7064 13.8283 16.2889 13.8283C15.9737 13.8362 15.6635 13.9089 15.3777 14.0417C15.092 14.1745 14.8369 14.3646 14.6283 14.6001C14.057 15.2189 12.4592 16.7157 12.4592 19.7689C12.4592 22.822 14.688 25.7563 15.0019 26.172C15.3095 26.5876 19.3778 32.8344 25.6215 35.5219C27.0969 36.1625 28.2584 36.5407 29.1656 36.8282C30.6567 37.3032 32.0034 37.2313 33.077 37.0782C34.2698 36.8969 36.7529 35.5782 37.2771 34.1313C37.7919 32.6813 37.7919 31.4438 37.635 31.1844C37.4812 30.9219 37.0637 30.7688 36.4421 30.4594Z" fill="#DA2528"/>
</svg>
