<svg width="50" height="51" viewBox="0 0 50 51" fill="none" xmlns="http://www.w3.org/2000/svg">
<path d="M50 25.5C50 32.1304 47.3661 38.4893 42.6777 43.1777C37.9893 47.8661 31.6304 50.5 25 50.5C18.3696 50.5 12.0107 47.8661 7.32233 43.1777C2.63392 38.4893 0 32.1304 0 25.5C0 18.8696 2.63392 12.5107 7.32233 7.82233C12.0107 3.13392 18.3696 0.5 25 0.5C31.6304 0.5 37.9893 3.13392 42.6777 7.82233C47.3661 12.5107 50 18.8696 50 25.5ZM25.8969 18.9563C23.4635 19.9688 18.6031 22.0625 11.3156 25.2375C10.1344 25.7062 9.51458 26.1667 9.45625 26.6187C9.3625 27.3781 10.3156 27.6781 11.6125 28.0875L12.1594 28.2594C13.4344 28.675 15.1531 29.1594 16.0437 29.1781C16.8562 29.199 17.7604 28.8656 18.7563 28.1781C25.5667 23.5823 29.0813 21.2594 29.3 21.2094C29.4563 21.1719 29.675 21.1281 29.8187 21.2594C29.9625 21.3906 29.95 21.6344 29.9344 21.7C29.8406 22.1031 26.1 25.5781 24.1656 27.3781C23.5625 27.9406 23.1344 28.3375 23.0469 28.4281C22.8543 28.6251 22.6584 28.8189 22.4594 29.0094C21.2719 30.1531 20.3844 31.0094 22.5063 32.4094C23.5281 33.0844 24.3469 33.6375 25.1625 34.1937C26.05 34.8 26.9375 35.4031 28.0875 36.1594C28.3792 36.351 28.6604 36.5458 28.9313 36.7437C29.9656 37.4812 30.9 38.1437 32.0469 38.0375C32.7156 37.975 33.4062 37.35 33.7562 35.475C34.5844 31.0469 36.2125 21.4562 36.5875 17.5031C36.6111 17.1745 36.5974 16.8443 36.5469 16.5187C36.5166 16.2563 36.3896 16.0145 36.1906 15.8406C35.9059 15.6451 35.5672 15.5435 35.2219 15.55C34.2844 15.5656 32.8375 16.0688 25.8969 18.9563Z" fill="#DA2528"/>
</svg>
