<svg width="50" height="54" viewBox="0 0 50 54" fill="none" xmlns="http://www.w3.org/2000/svg">
<path fill-rule="evenodd" clip-rule="evenodd" d="M5.89191 2.19002C6.43869 1.61126 7.09525 1.16229 7.81809 0.872873C8.54093 0.583452 9.31354 0.460185 10.0847 0.511241C10.8559 0.562296 11.608 0.786508 12.2913 1.16902C12.9745 1.55153 13.5733 2.0836 14.0479 2.72998L19.6571 10.369C20.6852 11.7702 21.0477 13.5955 20.6415 15.3181L18.9321 22.5728C18.8444 22.9485 18.8495 23.342 18.9469 23.7151C19.0443 24.0882 19.2308 24.4284 19.4884 24.7028L27.1662 32.842C27.4254 33.1156 27.7469 33.3136 28.0994 33.4169C28.452 33.5202 28.8237 33.5253 29.1787 33.4316L36.0191 31.6196C36.8211 31.4083 37.6578 31.3924 38.4664 31.5731C39.275 31.7539 40.0345 32.1265 40.6877 32.6631L47.8937 38.606C50.4843 40.7427 50.7218 44.8007 48.4031 47.2553L45.1719 50.6806C42.8595 53.132 39.4034 54.2086 36.1816 53.0061C27.9339 49.9339 20.4463 44.929 14.276 38.3642C8.08363 31.8242 3.36247 23.8878 0.463957 15.1458C-0.667257 11.7338 0.348336 8.06666 2.66076 5.6153L5.89191 2.19002Z" fill="#DA2528"/>
</svg>
