<svg width="54" height="55" viewBox="0 0 54 55" fill="none" xmlns="http://www.w3.org/2000/svg">
<path d="M27 0.5C19.8392 0.5 12.9716 3.34464 7.90812 8.40812C2.84464 13.4716 0 20.3392 0 27.5C0 34.6608 2.84464 41.5284 7.90812 46.5919C12.9716 51.6554 19.8392 54.5 27 54.5C34.1608 54.5 41.0284 51.6554 46.0919 46.5919C51.1554 41.5284 54 34.6608 54 27.5C54 20.3392 51.1554 13.4716 46.0919 8.40812C41.0284 3.34464 34.1608 0.5 27 0.5ZM38.8125 25.8125C39.2601 25.8125 39.6893 25.9903 40.0057 26.3068C40.3222 26.6232 40.5 27.0524 40.5 27.5C40.5 27.9476 40.3222 28.3768 40.0057 28.6932C39.6893 29.0097 39.2601 29.1875 38.8125 29.1875H19.2611L26.5072 36.4302C26.6641 36.5871 26.7886 36.7734 26.8735 36.9784C26.9584 37.1834 27.0021 37.4031 27.0021 37.625C27.0021 37.8469 26.9584 38.0666 26.8735 38.2716C26.7886 38.4766 26.6641 38.6629 26.5072 38.8197C26.3504 38.9766 26.1641 39.1011 25.9591 39.186C25.7541 39.2709 25.5344 39.3146 25.3125 39.3146C25.0906 39.3146 24.8709 39.2709 24.6659 39.186C24.4609 39.1011 24.2746 38.9766 24.1177 38.8197L13.9927 28.6947C13.8356 28.538 13.7109 28.3518 13.6258 28.1468C13.5408 27.9417 13.497 27.722 13.497 27.5C13.497 27.278 13.5408 27.0583 13.6258 26.8532C13.7109 26.6482 13.8356 26.462 13.9927 26.3052L24.1177 16.1802C24.4346 15.8634 24.8644 15.6854 25.3125 15.6854C25.7606 15.6854 26.1904 15.8634 26.5072 16.1802C26.8241 16.4971 27.0021 16.9269 27.0021 17.375C27.0021 17.8231 26.8241 18.2529 26.5072 18.5697L19.2611 25.8125H38.8125Z" fill="#DA2528"/>
</svg>
